# xmcd CD database file
#
# Track frame offsets:
#	150
#	38274
#	78329
#	112540
#	154845
#	189205
#
# Disc length: 3003 seconds
#
# Revision: 0
# Processed by: cddbd v1.5PL3 Copyright (c) Steve Scherf et al.
# Submitted via: CDex 1.51
#
DISCID=2e0bb906
DTITLE=Relaxing Dreams Vol 16 - Ethno Moves by Charisma
DYEAR=2000
DGENRE=New Age
TTITLE0=Cascades
TTITLE1=Fairy
TTITLE2=Didgeridoo Tales
TTITLE3=Indian Summer
TTITLE4=1001 Nights
TTITLE5=Years Ago
EXTD=YEAR: 2000
EXTT0=
EXTT1=
EXTT2=
EXTT3=
EXTT4=
EXTT5=
PLAYORDER=
